<?xml version="1.0" encoding="UTF-8"?><svg id="Layer_2" xmlns="http://www.w3.org/2000/svg" viewBox="0 0 400.12 369.57"><defs><style>.cls-1{fill:#fff;}</style></defs><g id="Layer_1-2"><g><g><path class="cls-1" d="M0,34.7c56.37,1.43,99.31,26.21,129.67,73.63,16.9,26.4,40.39,42.77,72.87,42.02,25.39-.59,45.1-13.2,60.98-32.35,7.44-8.97,12.62-19.52,20.26-28.38,24.48-28.38,54.94-46.06,92.08-52,6.89-1.1,13.81-1.88,20.81-1.98,2.64-.04,3.43,.82,3.39,3.41-.13,8.82-.29,17.64,.05,26.45,.17,4.44-1.01,5.93-5.66,6.06-26.2,.7-49.19,10.06-69.23,26.75-8.47,7.06-15.61,15.23-21.43,24.75-18.3,29.96-43.58,51.05-78.17,59.99-5.53,1.43-11.38,1.19-16.72,3.46h-15.99c-6.25-1.2-12.59-2.1-18.75-3.65-34.28-8.62-59.46-29.5-77.53-59.14-8.34-13.67-18.93-24.83-32.03-33.63C45.12,77.03,23.75,69.79,0,70.66V34.7Z"/><path class="cls-1" d="M145.43,56.38C145.79,25.39,169.82,.59,200.97,.01c18.08-.34,33.31,6.84,44.92,20.95,5.03,6.12,4.21,14.88-1.58,19.61-6.03,4.93-14.13,4.14-19.48-2.18-7.72-9.11-17.62-12.63-29.01-10.23-11.23,2.36-18.76,9.61-21.89,20.84-3.66,13.14,2.45,26.97,14.53,33.36,11.8,6.24,26.44,3.5,35.42-6.62,5.34-6.03,11.15-7.74,17.19-5.07,8.16,3.61,10.76,13.88,5.31,20.94-13.92,18.03-39.08,25.77-61.43,18.89-21.81-6.72-37.91-27.12-39.19-49.65-.08-1.49-.22-2.98-.33-4.47Z"/></g><polygon class="cls-1" points="331.66 237.97 200.06 369.57 68.46 237.97 331.66 237.97"/></g></g></svg>